<svg width="100%" height="65" viewBox="0 0 797 798" fill="none" xmlns="http://www.w3.org/2000/svg">
<ellipse cx="397.5" cy="414" rx="380.5" ry="384" fill="white"/>
<path d="M398.453 0C178.422 0 0 178.391 0 398.453C0 574.503 114.169 723.859 272.487 776.547C292.4 780.234 299.712 767.903 299.712 757.378C299.712 747.878 299.341 716.487 299.172 683.194C188.319 707.297 164.928 636.181 164.928 636.181C146.803 590.125 120.687 577.881 120.687 577.881C84.5375 553.15 123.413 553.656 123.413 553.656C163.425 556.469 184.494 594.719 184.494 594.719C220.031 655.634 277.706 638.022 300.444 627.844C304.019 602.088 314.347 584.513 325.741 574.563C237.241 564.484 144.203 530.319 144.203 377.644C144.203 334.144 159.769 298.597 185.259 270.694C181.122 260.656 167.484 220.131 189.119 165.247C189.119 165.247 222.578 154.537 298.722 206.091C330.503 197.259 364.591 192.834 398.453 192.684C432.316 192.834 466.428 197.259 498.272 206.091C574.325 154.537 607.737 165.247 607.737 165.247C629.425 220.131 615.781 260.656 611.644 270.694C637.191 298.597 652.65 334.141 652.65 377.644C652.65 530.681 559.438 564.381 470.713 574.244C485.003 586.609 497.738 610.859 497.738 648.031C497.738 701.344 497.275 744.253 497.275 757.378C497.275 767.981 504.447 780.406 524.647 776.494C682.878 723.747 796.903 574.444 796.903 398.453C796.903 178.391 618.506 0 398.453 0Z" fill="#161614"/>
<path d="M149.234 567.606C148.359 569.584 145.241 570.178 142.406 568.822C139.516 567.522 137.891 564.822 138.828 562.834C139.687 560.797 142.806 560.228 145.691 561.597C148.587 562.894 150.237 565.619 149.234 567.606ZM168.834 585.094C166.934 586.856 163.219 586.038 160.697 583.253C158.091 580.475 157.603 576.763 159.531 574.972C161.491 573.213 165.094 574.034 167.706 576.816C170.312 579.625 170.819 583.316 168.831 585.097M182.281 607.469C179.837 609.166 175.844 607.575 173.378 604.031C170.937 600.491 170.937 596.241 173.431 594.538C175.906 592.834 179.837 594.366 182.337 597.881C184.775 601.484 184.775 605.734 182.278 607.472M205.019 633.384C202.834 635.791 198.184 635.147 194.778 631.859C191.297 628.647 190.325 624.088 192.516 621.678C194.725 619.266 199.403 619.944 202.834 623.203C206.294 626.409 207.347 631.003 205.019 633.384ZM234.406 642.134C233.447 645.253 228.966 646.672 224.453 645.347C219.947 643.981 216.997 640.325 217.906 637.172C218.844 634.031 223.344 632.553 227.891 633.972C232.391 635.331 235.344 638.959 234.406 642.134ZM267.856 645.844C267.969 649.131 264.141 651.856 259.403 651.916C254.637 652.019 250.784 649.359 250.734 646.128C250.734 642.809 254.475 640.109 259.237 640.031C263.975 639.938 267.856 642.578 267.856 645.844ZM300.712 644.584C301.281 647.791 297.987 651.084 293.284 651.959C288.659 652.803 284.378 650.825 283.787 647.647C283.212 644.359 286.569 641.069 291.184 640.216C295.897 639.397 300.112 641.325 300.712 644.584Z" fill="#161614"/>
</svg>
