<svg height='100%' preserveAspectRatio='xMidYMid meet' viewBox="0 0 500 110" fill="none" xmlns="http://www.w3.org/2000/svg">
<g clip-path="url(#clip0_2933_3)">
<path d="M33.484 93.039C43.408 93.039 49.46 87.928 49.46 81.408C49.46 71.492 38.603 68.699 23.874 61.102C9.296 53.649 1.7 42.955 1.7 30.553C1.7 12.715 16.107 0 40.314 0C49.296 0 57.676 1.711 66.674 4.964V22.635C57.834 18.148 50.702 15.511 44.809 15.511C36.43 15.511 31.006 20.157 31.006 25.737C31.006 34.418 42.173 37.535 60.313 47.451C72.409 54.122 77.984 63.272 77.984 75.987C77.984 95.679 61.702 109.334 36.589 109.334C26.2 109.334 16.106 107.313 5.412 103.746L0 81.408C12.243 88.86 22.635 93.039 33.484 93.039ZM124.375 44.285C118.204 44.285 114.249 48.399 113.931 55.995H134.18C134.179 48.244 130.705 44.285 124.375 44.285ZM113.295 69.927C113.295 70.88 113.136 71.823 113.136 72.612C113.136 86.209 122 94.127 136.395 94.127C143.515 94.127 152.069 91.129 162.819 86.066L157.128 104.418C147.784 107.582 138.929 109.797 128.957 109.797C100.64 109.797 84.028 93.821 84.028 70.082C84.028 46.353 101.429 29.574 125.169 29.574C146.216 29.574 161.87 44.446 161.87 67.875V69.928L113.295 69.927ZM171.694 93.5V46.66C171.694 40.489 170.423 36.227 166.317 32.416H173.6C181.828 32.416 190.207 32.109 198.912 30.676L199.539 38.436C205.869 33.366 211.882 30.839 218.998 30.839C235.621 30.839 246.374 41.442 246.374 58.689V93.5C246.374 99.672 247.638 103.777 251.759 107.582H213.153C217.267 103.777 218.53 99.672 218.53 93.5V69.287C218.53 54.575 216.624 46.814 208.558 46.814C200.175 46.814 199.539 54.574 199.539 69.287V93.5C199.539 99.67 200.806 103.776 204.916 107.58H166.317C170.423 103.776 171.694 99.669 171.694 93.5ZM295.342 44.285C289.167 44.285 285.212 48.399 284.895 55.995H305.155C305.154 48.244 301.676 44.285 295.342 44.285ZM284.268 69.927C284.268 70.88 284.108 71.823 284.108 72.612C284.108 86.209 292.967 94.127 307.364 94.127C314.487 94.127 323.042 91.129 333.788 86.066L328.1 104.418C318.751 107.582 309.897 109.797 299.934 109.797C271.604 109.797 254.996 93.821 254.996 70.082C254.996 46.353 272.401 29.574 296.142 29.574C317.185 29.574 332.842 44.446 332.842 67.875V69.928L284.268 69.927ZM409.074 104.574C400.842 108.213 392.763 109.793 384.226 109.793C357.802 109.793 341.021 93.022 341.021 70.722C341.021 47.138 358.907 29.737 386.911 29.737C391.349 29.737 397.187 30.372 404.641 31.476V50.307C398.299 46.983 393.241 45.24 389.125 45.24C378.688 45.24 371.875 53.15 371.875 66.922C371.875 83.224 379.952 93.184 393.239 93.184C399.573 93.184 406.534 90.967 414.761 86.532L409.074 104.574ZM444.468 85.267C444.468 90.807 448.415 94.608 455.389 94.608H456.644L450.012 108.693C445.574 109.009 442.563 109.162 440.672 109.162C425.01 109.162 414.407 99.041 414.407 85.586C414.407 73.879 421.841 66.44 436.394 62.967C450.312 59.64 459.342 59.957 459.342 52.363C459.342 47.618 456.015 45.089 449.37 45.089C443.045 45.089 436.392 46.661 429.277 49.513L436.711 32.579C442.719 30.84 448.413 29.736 454.434 29.736C466.768 29.736 475.644 32.273 481.334 38.123C487.981 44.922 488.141 53.472 488.141 64.376V65.806V83.374C488.141 91.604 490.993 93.977 499.998 95.239L493.994 108.534C489.876 108.855 487.028 109.011 485.134 109.011C469.946 109.011 459.184 99.671 459.184 85.585V72.296C449.372 76.085 444.468 78.949 444.468 85.267Z" fill="#EE3534"/>
</g>
<defs>
<clipPath id="clip0_2933_3">
<rect width="500" height="109.796" fill="white"/>
</clipPath>
</defs>
</svg>
