<svg height='100%' preserveAspectRatio='xMidYMid meet' viewBox="0 0 1200 600" fill="none" xmlns="http://www.w3.org/2000/svg">
<g clip-path="url(#clip0_2933_5)">
<path d="M0 600H1200V0H0V600Z" fill="white"/>
<path d="M1014.96 218.145C954.388 261.809 888.169 299.651 816.813 330.519C781.552 345.771 743.546 356.317 703.52 361.324C675.057 364.88 646.073 366.669 616.675 366.669V600H1200V84.5283L1014.97 218.163L1014.96 218.145Z" fill="#008940"/>
<path d="M185.035 218.145C245.624 261.809 311.833 299.651 383.198 330.519C418.467 345.771 456.454 356.317 496.499 361.324C524.943 364.88 553.927 366.669 583.344 366.669V600H0V84.5283L185.025 218.163L185.035 218.145Z" fill="#008940"/>
<path d="M616.675 0V333.329C644.667 333.329 672.284 331.603 699.376 328.249C736.196 323.637 771.136 313.945 803.565 299.926C872.687 270.031 936.775 233.403 995.435 191.108V191.117L1200 43.3801V5.68624e-05L616.675 0Z" fill="#133E79"/>
<path d="M583.344 0V333.329C555.324 333.329 527.737 331.603 500.643 328.249H500.634C463.804 323.637 428.857 313.945 396.427 299.926C327.323 270.031 263.235 233.403 204.557 191.108V191.117L0 43.3801V5.68624e-05L583.344 0Z" fill="#133E79"/>
</g>
<defs>
<clipPath id="clip0_2933_5">
<rect width="1200" height="600" fill="white"/>
</clipPath>
</defs>
</svg>
